<mxfile host="Electron" agent="Mozilla/5.0 (Windows NT 10.0; Win64; x64) AppleWebKit/537.36 (KHTML, like Gecko) draw.io/24.7.8 Chrome/128.0.6613.36 Electron/32.0.1 Safari/537.36" version="24.7.8">
  <diagram name="Page-1" id="magkBhk4KmJtrxDzVgJV">
    <mxGraphModel dx="1498" dy="919" grid="1" gridSize="10" guides="0" tooltips="1" connect="1" arrows="1" fold="1" page="1" pageScale="1" pageWidth="1" pageHeight="1" math="0" shadow="0">
      <root>
        <mxCell id="0" />
        <mxCell id="1" parent="0" />
        <mxCell id="6Fi_e5lVrd8VuNeaOpWh-1" value="Módulo de Cadastro/Login" style="swimlane;whiteSpace=wrap;html=1;" vertex="1" parent="1">
          <mxGeometry x="160" y="10" width="470" height="790" as="geometry" />
        </mxCell>
        <mxCell id="6Fi_e5lVrd8VuNeaOpWh-13" style="edgeStyle=orthogonalEdgeStyle;rounded=0;orthogonalLoop=1;jettySize=auto;html=1;exitX=0.5;exitY=1;exitDx=0;exitDy=0;entryX=0.5;entryY=0;entryDx=0;entryDy=0;dashed=1;" edge="1" parent="6Fi_e5lVrd8VuNeaOpWh-1" source="6Fi_e5lVrd8VuNeaOpWh-6" target="6Fi_e5lVrd8VuNeaOpWh-9">
          <mxGeometry relative="1" as="geometry" />
        </mxCell>
        <mxCell id="6Fi_e5lVrd8VuNeaOpWh-14" value="&amp;lt;&amp;lt;extends&amp;gt;&amp;gt;" style="edgeLabel;html=1;align=center;verticalAlign=middle;resizable=0;points=[];" vertex="1" connectable="0" parent="6Fi_e5lVrd8VuNeaOpWh-13">
          <mxGeometry x="-0.02" relative="1" as="geometry">
            <mxPoint as="offset" />
          </mxGeometry>
        </mxCell>
        <mxCell id="6Fi_e5lVrd8VuNeaOpWh-15" value="&amp;lt;&amp;lt;extends&amp;gt;&amp;gt;" style="edgeLabel;html=1;align=center;verticalAlign=middle;resizable=0;points=[];" vertex="1" connectable="0" parent="6Fi_e5lVrd8VuNeaOpWh-13">
          <mxGeometry x="-0.02" relative="1" as="geometry">
            <mxPoint as="offset" />
          </mxGeometry>
        </mxCell>
        <mxCell id="6Fi_e5lVrd8VuNeaOpWh-17" style="edgeStyle=orthogonalEdgeStyle;rounded=0;orthogonalLoop=1;jettySize=auto;html=1;exitX=0.5;exitY=0;exitDx=0;exitDy=0;entryX=0.5;entryY=1;entryDx=0;entryDy=0;dashed=1;" edge="1" parent="6Fi_e5lVrd8VuNeaOpWh-1" source="6Fi_e5lVrd8VuNeaOpWh-6" target="6Fi_e5lVrd8VuNeaOpWh-16">
          <mxGeometry relative="1" as="geometry" />
        </mxCell>
        <mxCell id="6Fi_e5lVrd8VuNeaOpWh-18" value="&amp;lt;&amp;lt;includes&amp;gt;&amp;gt;" style="edgeLabel;html=1;align=center;verticalAlign=middle;resizable=0;points=[];" vertex="1" connectable="0" parent="6Fi_e5lVrd8VuNeaOpWh-17">
          <mxGeometry x="-0.0143" relative="1" as="geometry">
            <mxPoint as="offset" />
          </mxGeometry>
        </mxCell>
        <mxCell id="6Fi_e5lVrd8VuNeaOpWh-6" value="UC-02&lt;div&gt;Cadastrar-se&lt;/div&gt;" style="ellipse;whiteSpace=wrap;html=1;" vertex="1" parent="6Fi_e5lVrd8VuNeaOpWh-1">
          <mxGeometry x="180" y="190" width="160" height="80" as="geometry" />
        </mxCell>
        <mxCell id="6Fi_e5lVrd8VuNeaOpWh-9" value="UC-03&lt;div&gt;Logar&lt;span style=&quot;background-color: initial;&quot;&gt;-se&lt;/span&gt;&lt;/div&gt;" style="ellipse;whiteSpace=wrap;html=1;" vertex="1" parent="6Fi_e5lVrd8VuNeaOpWh-1">
          <mxGeometry x="180" y="310" width="160" height="80" as="geometry" />
        </mxCell>
        <mxCell id="6Fi_e5lVrd8VuNeaOpWh-19" style="edgeStyle=orthogonalEdgeStyle;rounded=0;orthogonalLoop=1;jettySize=auto;html=1;exitX=1;exitY=0.5;exitDx=0;exitDy=0;entryX=1;entryY=0.5;entryDx=0;entryDy=0;dashed=1;" edge="1" parent="6Fi_e5lVrd8VuNeaOpWh-1" source="6Fi_e5lVrd8VuNeaOpWh-10" target="6Fi_e5lVrd8VuNeaOpWh-16">
          <mxGeometry relative="1" as="geometry">
            <Array as="points">
              <mxPoint x="380" y="470" />
              <mxPoint x="380" y="110" />
            </Array>
          </mxGeometry>
        </mxCell>
        <mxCell id="6Fi_e5lVrd8VuNeaOpWh-20" value="&amp;lt;&amp;lt;includes&amp;gt;&amp;gt;" style="edgeLabel;html=1;align=center;verticalAlign=middle;resizable=0;points=[];" vertex="1" connectable="0" parent="6Fi_e5lVrd8VuNeaOpWh-19">
          <mxGeometry x="-0.0013" y="1" relative="1" as="geometry">
            <mxPoint as="offset" />
          </mxGeometry>
        </mxCell>
        <mxCell id="6Fi_e5lVrd8VuNeaOpWh-10" value="UC-04&lt;div&gt;Recuperar senha&lt;/div&gt;" style="ellipse;whiteSpace=wrap;html=1;" vertex="1" parent="6Fi_e5lVrd8VuNeaOpWh-1">
          <mxGeometry x="180" y="430" width="160" height="80" as="geometry" />
        </mxCell>
        <mxCell id="6Fi_e5lVrd8VuNeaOpWh-21" style="edgeStyle=orthogonalEdgeStyle;rounded=0;orthogonalLoop=1;jettySize=auto;html=1;exitX=0;exitY=0;exitDx=0;exitDy=0;entryX=0.5;entryY=1;entryDx=0;entryDy=0;dashed=1;" edge="1" parent="6Fi_e5lVrd8VuNeaOpWh-1" source="6Fi_e5lVrd8VuNeaOpWh-11" target="6Fi_e5lVrd8VuNeaOpWh-9">
          <mxGeometry relative="1" as="geometry">
            <Array as="points">
              <mxPoint x="203" y="560" />
              <mxPoint x="140" y="560" />
              <mxPoint x="140" y="410" />
              <mxPoint x="260" y="410" />
            </Array>
          </mxGeometry>
        </mxCell>
        <mxCell id="6Fi_e5lVrd8VuNeaOpWh-22" value="&amp;lt;&amp;lt;includes&amp;gt;&amp;gt;" style="edgeLabel;html=1;align=center;verticalAlign=middle;resizable=0;points=[];" vertex="1" connectable="0" parent="6Fi_e5lVrd8VuNeaOpWh-21">
          <mxGeometry x="0.0054" relative="1" as="geometry">
            <mxPoint y="61" as="offset" />
          </mxGeometry>
        </mxCell>
        <mxCell id="6Fi_e5lVrd8VuNeaOpWh-11" value="UC-05&lt;div&gt;Alterar senha&lt;/div&gt;" style="ellipse;whiteSpace=wrap;html=1;" vertex="1" parent="6Fi_e5lVrd8VuNeaOpWh-1">
          <mxGeometry x="180" y="550" width="160" height="80" as="geometry" />
        </mxCell>
        <mxCell id="6Fi_e5lVrd8VuNeaOpWh-23" style="edgeStyle=orthogonalEdgeStyle;rounded=0;orthogonalLoop=1;jettySize=auto;html=1;exitX=0;exitY=0;exitDx=0;exitDy=0;dashed=1;endArrow=none;endFill=0;" edge="1" parent="6Fi_e5lVrd8VuNeaOpWh-1" source="6Fi_e5lVrd8VuNeaOpWh-12">
          <mxGeometry relative="1" as="geometry">
            <mxPoint x="140" y="560" as="targetPoint" />
          </mxGeometry>
        </mxCell>
        <mxCell id="6Fi_e5lVrd8VuNeaOpWh-12" value="UC-06&lt;div&gt;Modificar informações de cadastro&lt;/div&gt;" style="ellipse;whiteSpace=wrap;html=1;" vertex="1" parent="6Fi_e5lVrd8VuNeaOpWh-1">
          <mxGeometry x="180" y="670" width="160" height="80" as="geometry" />
        </mxCell>
        <mxCell id="6Fi_e5lVrd8VuNeaOpWh-16" value="UC-01&lt;div&gt;Identificar-se&lt;/div&gt;" style="ellipse;whiteSpace=wrap;html=1;" vertex="1" parent="6Fi_e5lVrd8VuNeaOpWh-1">
          <mxGeometry x="180" y="70" width="160" height="80" as="geometry" />
        </mxCell>
        <mxCell id="6Fi_e5lVrd8VuNeaOpWh-36" style="edgeStyle=orthogonalEdgeStyle;rounded=0;orthogonalLoop=1;jettySize=auto;html=1;endArrow=none;endFill=0;" edge="1" parent="1" source="6Fi_e5lVrd8VuNeaOpWh-2">
          <mxGeometry relative="1" as="geometry">
            <mxPoint x="200" y="400" as="targetPoint" />
          </mxGeometry>
        </mxCell>
        <mxCell id="6Fi_e5lVrd8VuNeaOpWh-2" value="Usuário" style="shape=umlActor;verticalLabelPosition=bottom;verticalAlign=top;html=1;outlineConnect=0;" vertex="1" parent="1">
          <mxGeometry x="100" y="370" width="30" height="60" as="geometry" />
        </mxCell>
        <mxCell id="6Fi_e5lVrd8VuNeaOpWh-37" value="" style="endArrow=none;html=1;rounded=0;" edge="1" parent="1">
          <mxGeometry width="50" height="50" relative="1" as="geometry">
            <mxPoint x="200" y="400" as="sourcePoint" />
            <mxPoint x="260" y="120" as="targetPoint" />
          </mxGeometry>
        </mxCell>
        <mxCell id="6Fi_e5lVrd8VuNeaOpWh-38" value="" style="endArrow=none;html=1;rounded=0;" edge="1" parent="1">
          <mxGeometry width="50" height="50" relative="1" as="geometry">
            <mxPoint x="200" y="400" as="sourcePoint" />
            <mxPoint x="270" y="240" as="targetPoint" />
          </mxGeometry>
        </mxCell>
        <mxCell id="6Fi_e5lVrd8VuNeaOpWh-39" value="" style="endArrow=none;html=1;rounded=0;entryX=0;entryY=0.5;entryDx=0;entryDy=0;" edge="1" parent="1" target="6Fi_e5lVrd8VuNeaOpWh-9">
          <mxGeometry width="50" height="50" relative="1" as="geometry">
            <mxPoint x="200" y="400" as="sourcePoint" />
            <mxPoint x="240" y="350" as="targetPoint" />
          </mxGeometry>
        </mxCell>
        <mxCell id="6Fi_e5lVrd8VuNeaOpWh-40" value="" style="endArrow=none;html=1;rounded=0;entryX=0;entryY=0.5;entryDx=0;entryDy=0;" edge="1" parent="1" target="6Fi_e5lVrd8VuNeaOpWh-10">
          <mxGeometry width="50" height="50" relative="1" as="geometry">
            <mxPoint x="200" y="400" as="sourcePoint" />
            <mxPoint x="240" y="470" as="targetPoint" />
          </mxGeometry>
        </mxCell>
        <mxCell id="6Fi_e5lVrd8VuNeaOpWh-42" value="" style="endArrow=none;html=1;rounded=0;" edge="1" parent="1">
          <mxGeometry width="50" height="50" relative="1" as="geometry">
            <mxPoint x="270" y="600" as="sourcePoint" />
            <mxPoint x="200" y="400" as="targetPoint" />
          </mxGeometry>
        </mxCell>
        <mxCell id="6Fi_e5lVrd8VuNeaOpWh-43" value="" style="endArrow=none;html=1;rounded=0;entryX=0;entryY=0.5;entryDx=0;entryDy=0;" edge="1" parent="1" target="6Fi_e5lVrd8VuNeaOpWh-11">
          <mxGeometry width="50" height="50" relative="1" as="geometry">
            <mxPoint x="270" y="600" as="sourcePoint" />
            <mxPoint x="250" y="460" as="targetPoint" />
          </mxGeometry>
        </mxCell>
        <mxCell id="6Fi_e5lVrd8VuNeaOpWh-44" value="" style="endArrow=none;html=1;rounded=0;" edge="1" parent="1">
          <mxGeometry width="50" height="50" relative="1" as="geometry">
            <mxPoint x="260" y="720" as="sourcePoint" />
            <mxPoint x="200" y="400" as="targetPoint" />
          </mxGeometry>
        </mxCell>
        <mxCell id="6Fi_e5lVrd8VuNeaOpWh-45" value="" style="endArrow=none;html=1;rounded=0;entryX=0;entryY=0.5;entryDx=0;entryDy=0;" edge="1" parent="1" target="6Fi_e5lVrd8VuNeaOpWh-12">
          <mxGeometry width="50" height="50" relative="1" as="geometry">
            <mxPoint x="260" y="720" as="sourcePoint" />
            <mxPoint x="290" y="530" as="targetPoint" />
          </mxGeometry>
        </mxCell>
        <mxCell id="6Fi_e5lVrd8VuNeaOpWh-46" value="" style="endArrow=none;html=1;rounded=0;entryX=0;entryY=0.5;entryDx=0;entryDy=0;" edge="1" parent="1" target="6Fi_e5lVrd8VuNeaOpWh-16">
          <mxGeometry width="50" height="50" relative="1" as="geometry">
            <mxPoint x="260" y="120" as="sourcePoint" />
            <mxPoint x="220" y="290" as="targetPoint" />
          </mxGeometry>
        </mxCell>
        <mxCell id="6Fi_e5lVrd8VuNeaOpWh-47" value="" style="endArrow=none;html=1;rounded=0;entryX=0;entryY=0.5;entryDx=0;entryDy=0;" edge="1" parent="1" target="6Fi_e5lVrd8VuNeaOpWh-6">
          <mxGeometry width="50" height="50" relative="1" as="geometry">
            <mxPoint x="270" y="240" as="sourcePoint" />
            <mxPoint x="170" y="350" as="targetPoint" />
          </mxGeometry>
        </mxCell>
      </root>
    </mxGraphModel>
  </diagram>
</mxfile>
